<?xml version="1.0" encoding="UTF-8"?>
<svg width="22px" height="23px" viewBox="0 0 22 23" version="1.1" xmlns="http://www.w3.org/2000/svg" xmlns:xlink="http://www.w3.org/1999/xlink">
    <!-- Generator: Sketch 40.3 (33839) - http://www.bohemiancoding.com/sketch -->
    <title>Path</title>
    <desc>Created with Sketch.</desc>
    <defs></defs>
    <g id="Page-1" stroke="none" stroke-width="1" fill="none" fill-rule="evenodd">
        <g id="03.-Menu" transform="translate(-124.000000, -634.000000)" stroke-width="2" stroke="#FFFFFF">
            <g id="163-like-outline" transform="translate(125.000000, 635.000000)">
                <g id="163---Like-(Outline)">
                    <g id="Page-1">
                        <g id="Icons">
                            <g id="163---Like-(Outline)">
                                <path d="M9.94,3.85021277 C10.7476,1.81489362 12.5912,0.392765957 14.7364,0.392765957 C17.6256,0.392765957 19.7064,3.02212766 19.968,6.15574468 C19.968,6.15574468 20.1092,6.93404255 19.7984,8.33446809 C19.3752,10.2417021 18.3804,11.9361702 17.0392,13.2289362 L9.94,19.9668085 L2.9608,13.2285106 C1.6192,11.9357447 0.6248,10.2412766 0.2016,8.33404255 C-0.1092,6.93319149 0.032,6.15531915 0.032,6.15531915 C0.2936,3.02170213 2.3744,0.392340426 5.2636,0.392340426 C7.4088,0.392340426 9.1328,1.81489362 9.94,3.85021277 L9.94,3.85021277 L9.94,3.85021277 Z" id="Path"></path>
                            </g>
                        </g>
                    </g>
                </g>
            </g>
        </g>
    </g>
</svg>